<?xml version="1.0" encoding="UTF-8" standalone="no"?>
<svg
   viewBox="0 0 1920 1920"
   version="1.1"
   id="svg45"
   sodipodi:docname="syringe_icon_125928.svg"
   inkscape:version="1.1 (c68e22c387, 2021-05-23)"
   xmlns:inkscape="http://www.inkscape.org/namespaces/inkscape"
   xmlns:sodipodi="http://sodipodi.sourceforge.net/DTD/sodipodi-0.dtd"
   xmlns="http://www.w3.org/2000/svg"
   xmlns:svg="http://www.w3.org/2000/svg">
  <defs
     id="defs49" />
  <sodipodi:namedview
     id="namedview47"
     pagecolor="#ffffff"
     bordercolor="#666666"
     borderopacity="1.0"
     inkscape:pageshadow="2"
     inkscape:pageopacity="0.0"
     inkscape:pagecheckerboard="0"
     showgrid="false"
     inkscape:zoom="0.43333333"
     inkscape:cx="958.84615"
     inkscape:cy="811.15385"
     inkscape:window-width="1920"
     inkscape:window-height="1017"
     inkscape:window-x="-8"
     inkscape:window-y="-8"
     inkscape:window-maximized="1"
     inkscape:current-layer="svg45" />
  <style
     id="style2">
        .st0{fill:#fff}.st1{fill:none;stroke:#231f20;stroke-width:50;stroke-linecap:round;stroke-linejoin:round;stroke-miterlimit:10}
    </style>
  <g
     id="STROKES-0"
     transform="matrix(0.03668621,0.57127057,-0.47998623,0.03082405,2069.097,123.01541)">
    <g
       id="XMLID_1_-5"
       transform="matrix(0.84197103,0,0,0.99025143,359.55837,2105.5512)">
      <g
         id="XMLID_2_-8">
        <path
           class="st1"
           d="m 434.6,274.2 61.6,-57.3"
           id="path10-1" />
        <path
           class="st1"
           d="M 262.2,434.2 323.8,377"
           id="path12-5" />
        <path
           class="st1"
           d="m 678.2,425.6 64.2,-59.5"
           id="path14-9" />
        <path
           class="st1"
           d="m 392.6,690.8 64.2,-59.6"
           id="path16-7" />
        <path
           class="st1"
           d="m 622.9,477 55.3,-51.4 614.5,662 -221.5,205.6 -125.2,-135 -96.6,-104 -96.6,-104 -96.5,-104 -96.6,-104 -102.9,-111 55.3,-51.4"
           id="path18-7" />
        <path
           class="st1"
           d="m 1280,1210.2 110.8,136.2 -68.8,63.8 -127.6,-120.6 0.8,-0.7 z"
           id="path20-9" />
        <path
           class="st1"
           d="m 1377.3,1400.9 280.5,302.2"
           id="path22-1" />
        <path
           class="st1"
           d="m 1292.7,1087.6 c 0,0 32.5,48.1 -12.7,122.6"
           id="path24-2" />
        <path
           class="st1"
           d="m 1071.2,1293.2 c 0,0 45.6,34.5 123.2,-5.1"
           id="path26-0" />
        <path
           class="st1"
           d="M 434.6,274.2 379.2,325.6 323.8,377 512.1,579.8 567.5,528.4 622.9,477 Z"
           id="path28-8" />
        <path
           class="st1"
           d="M 379.2,325.6 567.5,528.4"
           id="path30-3" />
        <path
           class="st1"
           d="M 559.7,742.2 670.5,639.4"
           id="path32-2" />
        <path
           class="st1"
           d="M 656.3,846.2 767,743.4"
           id="path34-2" />
        <path
           class="st1"
           d="M 752.8,950.2 863.6,847.4"
           id="path36-5" />
        <path
           class="st1"
           d="M 849.4,1054.2 960.1,951.4"
           id="path38-6" />
        <path
           class="st1"
           d="m 946,1158.2 110.7,-102.8"
           id="path40-1" />
      </g>
    </g>
  </g>
  <g
     id="STROKES"
     transform="matrix(0.01461714,0.52068907,-0.44710336,0.01255139,1614.4794,369.83408)">
    <g
       id="XMLID_1_">
      <g
         id="XMLID_2_">
        <path
           class="st1"
           d="m 434.6,274.2 61.6,-57.3"
           id="path10" />
        <path
           class="st1"
           d="M 262.2,434.2 323.8,377"
           id="path12" />
        <path
           class="st1"
           d="m 678.2,425.6 64.2,-59.5"
           id="path14" />
        <path
           class="st1"
           d="m 392.6,690.8 64.2,-59.6"
           id="path16" />
        <path
           class="st1"
           d="m 622.9,477 55.3,-51.4 614.5,662 -221.5,205.6 -125.2,-135 -96.6,-104 -96.6,-104 -96.5,-104 -96.6,-104 -102.9,-111 55.3,-51.4"
           id="path18" />
        <path
           class="st1"
           d="m 1280,1210.2 110.8,136.2 -68.8,63.8 -127.6,-120.6 0.8,-0.7 z"
           id="path20" />
        <path
           class="st1"
           d="m 1377.3,1400.9 280.5,302.2"
           id="path22" />
        <path
           class="st1"
           d="m 1292.7,1087.6 c 0,0 32.5,48.1 -12.7,122.6"
           id="path24" />
        <path
           class="st1"
           d="m 1071.2,1293.2 c 0,0 45.6,34.5 123.2,-5.1"
           id="path26" />
        <path
           class="st1"
           d="M 434.6,274.2 379.2,325.6 323.8,377 512.1,579.8 567.5,528.4 622.9,477 Z"
           id="path28" />
        <path
           class="st1"
           d="M 379.2,325.6 567.5,528.4"
           id="path30" />
        <path
           class="st1"
           d="M 559.7,742.2 670.5,639.4"
           id="path32" />
        <path
           class="st1"
           d="M 656.3,846.2 767,743.4"
           id="path34" />
        <path
           class="st1"
           d="M 752.8,950.2 863.6,847.4"
           id="path36" />
        <path
           class="st1"
           d="M 849.4,1054.2 960.1,951.4"
           id="path38" />
        <path
           class="st1"
           d="m 946,1158.2 110.7,-102.8"
           id="path40" />
      </g>
    </g>
  </g>
</svg>
